<svg width="21" height="22" viewBox="0 0 21 22" fill="none" xmlns="http://www.w3.org/2000/svg">
<path d="M9.60156 21.4473C9.28906 21.4473 9.01888 21.3594 8.79102 21.1836C8.56966 21.0078 8.42318 20.7637 8.35156 20.4512L7.87305 18.4297C7.72331 18.3776 7.57357 18.3223 7.42383 18.2637C7.2806 18.2051 7.14388 18.1465 7.01367 18.0879L5.25586 19.1719C4.99544 19.3346 4.72201 19.403 4.43555 19.377C4.14909 19.3509 3.89518 19.2272 3.67383 19.0059L2.42383 17.7656C2.20898 17.5443 2.08529 17.2871 2.05273 16.9941C2.02669 16.6947 2.10156 16.4147 2.27734 16.1543L3.3418 14.4062C3.2832 14.2695 3.22461 14.1328 3.16602 13.9961C3.11393 13.8594 3.0651 13.7194 3.01953 13.5762L0.988281 13.0977C0.675781 13.0326 0.431641 12.8893 0.255859 12.668C0.0800781 12.4401 -0.0078125 12.1667 -0.0078125 11.8477V10.0996C-0.0078125 9.79362 0.0800781 9.52995 0.255859 9.30859C0.431641 9.08073 0.675781 8.93099 0.988281 8.85938L3 8.38086C3.04557 8.2181 3.09766 8.06836 3.15625 7.93164C3.22135 7.79492 3.27995 7.66471 3.33203 7.54102L2.25781 5.75391C2.08203 5.48698 2.00716 5.21029 2.0332 4.92383C2.05924 4.63737 2.1862 4.38672 2.41406 4.17188L3.67383 2.92188C3.90169 2.71354 4.14909 2.5931 4.41602 2.56055C4.68294 2.52799 4.94987 2.58333 5.2168 2.72656L7.00391 3.83984C7.13411 3.77474 7.27409 3.71289 7.42383 3.6543C7.57357 3.58919 7.72331 3.5306 7.87305 3.47852L8.35156 1.44727C8.42318 1.14128 8.56966 0.900391 8.79102 0.724609C9.01888 0.542318 9.28906 0.451172 9.60156 0.451172H11.3887C11.7012 0.451172 11.9681 0.542318 12.1895 0.724609C12.4173 0.900391 12.5638 1.14128 12.6289 1.44727L13.1172 3.49805C13.2734 3.55013 13.4232 3.60547 13.5664 3.66406C13.7096 3.72266 13.8431 3.78451 13.9668 3.84961L15.7832 2.72656C16.0436 2.58333 16.3073 2.53125 16.5742 2.57031C16.8411 2.60286 17.0853 2.7168 17.3066 2.91211L18.5762 4.17188C18.804 4.38672 18.9277 4.63737 18.9473 4.92383C18.9733 5.21029 18.9049 5.48698 18.7422 5.75391L17.6582 7.54102C17.7103 7.66471 17.7656 7.79492 17.8242 7.93164C17.8828 8.06836 17.9382 8.2181 17.9902 8.38086L20.0117 8.85938C20.3177 8.93099 20.5586 9.08073 20.7344 9.30859C20.9102 9.52995 20.998 9.79362 20.998 10.0996V11.8477C20.998 12.1667 20.9102 12.4401 20.7344 12.668C20.5586 12.8893 20.3177 13.0326 20.0117 13.0977L17.9707 13.5762C17.9251 13.7194 17.873 13.8594 17.8145 13.9961C17.7624 14.1328 17.7038 14.2695 17.6387 14.4062L18.7129 16.1543C18.8887 16.4147 18.9635 16.6947 18.9375 16.9941C18.9115 17.2871 18.7878 17.5443 18.5664 17.7656L17.3164 19.0059C17.0951 19.2272 16.8411 19.3509 16.5547 19.377C16.2682 19.403 15.9948 19.3346 15.7344 19.1719L13.9668 18.0879C13.8366 18.1465 13.6999 18.2051 13.5566 18.2637C13.4134 18.3223 13.2669 18.3776 13.1172 18.4297L12.6289 20.4512C12.5638 20.7637 12.4173 21.0078 12.1895 21.1836C11.9681 21.3594 11.7012 21.4473 11.3887 21.4473H9.60156ZM10.5 14.3477C11.1185 14.3477 11.6849 14.1947 12.1992 13.8887C12.7135 13.5827 13.1237 13.1725 13.4297 12.6582C13.7357 12.1374 13.8887 11.5645 13.8887 10.9395C13.8887 10.321 13.7357 9.75781 13.4297 9.25C13.1237 8.73568 12.7135 8.32552 12.1992 8.01953C11.6849 7.71354 11.1185 7.56055 10.5 7.56055C9.875 7.56055 9.30534 7.71354 8.79102 8.01953C8.2832 8.32552 7.87305 8.73568 7.56055 9.25C7.25456 9.75781 7.10156 10.321 7.10156 10.9395C7.10156 11.5645 7.25456 12.1374 7.56055 12.6582C7.86654 13.1725 8.27669 13.5827 8.79102 13.8887C9.30534 14.1947 9.875 14.3477 10.5 14.3477Z" fill="#EB8D00"/>
</svg>
