<svg width="20" height="18" viewBox="0 0 20 18" fill="none" xmlns="http://www.w3.org/2000/svg">
<path d="M3.70801 17.0654C2.70605 17.0654 1.93848 16.7988 1.40527 16.2656C0.87207 15.7383 0.605469 14.9766 0.605469 13.9805V3.3457C0.605469 2.34961 0.87207 1.58789 1.40527 1.06055C1.93848 0.527344 2.70605 0.260742 3.70801 0.260742H15.96C16.9619 0.260742 17.7266 0.527344 18.2539 1.06055C18.7871 1.58789 19.0537 2.34961 19.0537 3.3457V13.9805C19.0537 14.9766 18.7871 15.7383 18.2539 16.2656C17.7266 16.7988 16.9619 17.0654 15.96 17.0654H3.70801ZM3.875 14.7979H15.7842C16.1123 14.7979 16.3613 14.7158 16.5312 14.5518C16.7012 14.3877 16.7861 14.1328 16.7861 13.7871V5.96484C16.7861 5.625 16.7012 5.37305 16.5312 5.20898C16.3613 5.04492 16.1123 4.96289 15.7842 4.96289H3.875C3.54688 4.96289 3.29785 5.04492 3.12793 5.20898C2.95801 5.37305 2.87305 5.625 2.87305 5.96484V13.7871C2.87305 14.1328 2.95801 14.3877 3.12793 14.5518C3.29785 14.7158 3.54688 14.7979 3.875 14.7979ZM8.19043 7.81934C8.02637 7.81934 7.91211 7.78711 7.84766 7.72266C7.7832 7.6582 7.75098 7.54688 7.75098 7.38867V6.87012C7.75098 6.71191 7.7832 6.60352 7.84766 6.54492C7.91211 6.48047 8.02637 6.44824 8.19043 6.44824H8.7002C8.86426 6.44824 8.97852 6.48047 9.04297 6.54492C9.10742 6.60352 9.13965 6.71191 9.13965 6.87012V7.38867C9.13965 7.54688 9.10742 7.6582 9.04297 7.72266C8.97852 7.78711 8.86426 7.81934 8.7002 7.81934H8.19043ZM10.9766 7.81934C10.8184 7.81934 10.707 7.78711 10.6426 7.72266C10.5781 7.6582 10.5459 7.54688 10.5459 7.38867V6.87012C10.5459 6.71191 10.5781 6.60352 10.6426 6.54492C10.707 6.48047 10.8184 6.44824 10.9766 6.44824H11.4951C11.6592 6.44824 11.7734 6.48047 11.8379 6.54492C11.9023 6.60352 11.9346 6.71191 11.9346 6.87012V7.38867C11.9346 7.54688 11.9023 7.6582 11.8379 7.72266C11.7734 7.78711 11.6592 7.81934 11.4951 7.81934H10.9766ZM13.7715 7.81934C13.6133 7.81934 13.502 7.78711 13.4375 7.72266C13.373 7.6582 13.3408 7.54688 13.3408 7.38867V6.87012C13.3408 6.71191 13.373 6.60352 13.4375 6.54492C13.502 6.48047 13.6133 6.44824 13.7715 6.44824H14.29C14.4541 6.44824 14.5684 6.48047 14.6328 6.54492C14.6973 6.60352 14.7295 6.71191 14.7295 6.87012V7.38867C14.7295 7.54688 14.6973 7.6582 14.6328 7.72266C14.5684 7.78711 14.4541 7.81934 14.29 7.81934H13.7715ZM5.39551 10.5615C5.23145 10.5615 5.11719 10.5322 5.05273 10.4736C4.98828 10.4092 4.95605 10.2979 4.95605 10.1396V9.62109C4.95605 9.46289 4.98828 9.35449 5.05273 9.2959C5.11719 9.23145 5.23145 9.19922 5.39551 9.19922H5.91406C6.07227 9.19922 6.18359 9.23145 6.24805 9.2959C6.3125 9.35449 6.34473 9.46289 6.34473 9.62109V10.1396C6.34473 10.2979 6.3125 10.4092 6.24805 10.4736C6.18359 10.5322 6.07227 10.5615 5.91406 10.5615H5.39551ZM8.19043 10.5615C8.02637 10.5615 7.91211 10.5322 7.84766 10.4736C7.7832 10.4092 7.75098 10.2979 7.75098 10.1396V9.62109C7.75098 9.46289 7.7832 9.35449 7.84766 9.2959C7.91211 9.23145 8.02637 9.19922 8.19043 9.19922H8.7002C8.86426 9.19922 8.97852 9.23145 9.04297 9.2959C9.10742 9.35449 9.13965 9.46289 9.13965 9.62109V10.1396C9.13965 10.2979 9.10742 10.4092 9.04297 10.4736C8.97852 10.5322 8.86426 10.5615 8.7002 10.5615H8.19043ZM10.9766 10.5615C10.8184 10.5615 10.707 10.5322 10.6426 10.4736C10.5781 10.4092 10.5459 10.2979 10.5459 10.1396V9.62109C10.5459 9.46289 10.5781 9.35449 10.6426 9.2959C10.707 9.23145 10.8184 9.19922 10.9766 9.19922H11.4951C11.6592 9.19922 11.7734 9.23145 11.8379 9.2959C11.9023 9.35449 11.9346 9.46289 11.9346 9.62109V10.1396C11.9346 10.2979 11.9023 10.4092 11.8379 10.4736C11.7734 10.5322 11.6592 10.5615 11.4951 10.5615H10.9766ZM13.7715 10.5615C13.6133 10.5615 13.502 10.5322 13.4375 10.4736C13.373 10.4092 13.3408 10.2979 13.3408 10.1396V9.62109C13.3408 9.46289 13.373 9.35449 13.4375 9.2959C13.502 9.23145 13.6133 9.19922 13.7715 9.19922H14.29C14.4541 9.19922 14.5684 9.23145 14.6328 9.2959C14.6973 9.35449 14.7295 9.46289 14.7295 9.62109V10.1396C14.7295 10.2979 14.6973 10.4092 14.6328 10.4736C14.5684 10.5322 14.4541 10.5615 14.29 10.5615H13.7715ZM5.39551 13.3125C5.23145 13.3125 5.11719 13.2832 5.05273 13.2246C4.98828 13.1602 4.95605 13.0459 4.95605 12.8818V12.3721C4.95605 12.208 4.98828 12.0967 5.05273 12.0381C5.11719 11.9795 5.23145 11.9502 5.39551 11.9502H5.91406C6.07227 11.9502 6.18359 11.9795 6.24805 12.0381C6.3125 12.0967 6.34473 12.208 6.34473 12.3721V12.8818C6.34473 13.0459 6.3125 13.1602 6.24805 13.2246C6.18359 13.2832 6.07227 13.3125 5.91406 13.3125H5.39551ZM8.19043 13.3125C8.02637 13.3125 7.91211 13.2832 7.84766 13.2246C7.7832 13.1602 7.75098 13.0459 7.75098 12.8818V12.3721C7.75098 12.208 7.7832 12.0967 7.84766 12.0381C7.91211 11.9795 8.02637 11.9502 8.19043 11.9502H8.7002C8.86426 11.9502 8.97852 11.9795 9.04297 12.0381C9.10742 12.0967 9.13965 12.208 9.13965 12.3721V12.8818C9.13965 13.0459 9.10742 13.1602 9.04297 13.2246C8.97852 13.2832 8.86426 13.3125 8.7002 13.3125H8.19043ZM10.9766 13.3125C10.8184 13.3125 10.707 13.2832 10.6426 13.2246C10.5781 13.1602 10.5459 13.0459 10.5459 12.8818V12.3721C10.5459 12.208 10.5781 12.0967 10.6426 12.0381C10.707 11.9795 10.8184 11.9502 10.9766 11.9502H11.4951C11.6592 11.9502 11.7734 11.9795 11.8379 12.0381C11.9023 12.0967 11.9346 12.208 11.9346 12.3721V12.8818C11.9346 13.0459 11.9023 13.1602 11.8379 13.2246C11.7734 13.2832 11.6592 13.3125 11.4951 13.3125H10.9766Z" fill="#EB8D00"/>
</svg>
