<svg width="25" height="17" viewBox="0 0 25 17" fill="none" xmlns="http://www.w3.org/2000/svg">
<path d="M11.2783 16.5996C10.5576 16.5996 10.0537 16.4912 9.7666 16.2744C9.47949 16.0635 9.33594 15.7559 9.33594 15.3516C9.33594 14.7832 9.50586 14.1885 9.8457 13.5674C10.1914 12.9463 10.6865 12.3633 11.3311 11.8184C11.9814 11.2734 12.7637 10.8311 13.6777 10.4912C14.5918 10.1514 15.6172 9.98145 16.7539 9.98145C17.8965 9.98145 18.9248 10.1514 19.8389 10.4912C20.7529 10.8311 21.5322 11.2734 22.1768 11.8184C22.8271 12.3633 23.3252 12.9463 23.6709 13.5674C24.0166 14.1885 24.1895 14.7832 24.1895 15.3516C24.1895 15.7559 24.043 16.0635 23.75 16.2744C23.4629 16.4912 22.959 16.5996 22.2383 16.5996H11.2783ZM16.7627 8.41699C16.1182 8.41699 15.5264 8.24414 14.9873 7.89844C14.4541 7.55273 14.0264 7.08691 13.7041 6.50098C13.3818 5.91504 13.2207 5.25879 13.2207 4.53223C13.2207 3.81738 13.3818 3.17285 13.7041 2.59863C14.0322 2.01855 14.4658 1.55859 15.0049 1.21875C15.5439 0.878906 16.1299 0.708984 16.7627 0.708984C17.4014 0.708984 17.9873 0.875977 18.5205 1.20996C19.0596 1.54395 19.4902 2.00098 19.8125 2.58105C20.1406 3.15527 20.3047 3.7998 20.3047 4.51465C20.3047 5.24707 20.1406 5.90918 19.8125 6.50098C19.4902 7.08691 19.0596 7.55273 18.5205 7.89844C17.9873 8.24414 17.4014 8.41699 16.7627 8.41699ZM1.75977 16.5996C1.16797 16.5996 0.749023 16.4795 0.50293 16.2393C0.256836 16.0049 0.133789 15.6709 0.133789 15.2373C0.133789 14.6396 0.286133 14.0332 0.59082 13.418C0.895508 12.7969 1.3291 12.2256 1.8916 11.7041C2.45996 11.1826 3.13965 10.7607 3.93066 10.4385C4.72754 10.1162 5.61816 9.95508 6.60254 9.95508C7.39941 9.95508 8.11133 10.0605 8.73828 10.2715C9.37109 10.4766 9.93066 10.7344 10.417 11.0449C9.91895 11.4375 9.48828 11.8828 9.125 12.3809C8.76172 12.873 8.48047 13.3799 8.28125 13.9014C8.08789 14.417 7.99121 14.9092 7.99121 15.3779C7.99121 15.8525 8.1084 16.2598 8.34277 16.5996H1.75977ZM6.60254 8.61914C6.0459 8.61914 5.5332 8.46973 5.06445 8.1709C4.5957 7.86621 4.2207 7.45898 3.93945 6.94922C3.6582 6.43359 3.51758 5.8623 3.51758 5.23535C3.51758 4.6084 3.6582 4.0459 3.93945 3.54785C4.22656 3.04395 4.60449 2.64551 5.07324 2.35254C5.54199 2.05371 6.05176 1.9043 6.60254 1.9043C7.15332 1.9043 7.66309 2.05078 8.13184 2.34375C8.60645 2.63086 8.98438 3.02637 9.26562 3.53027C9.54688 4.02832 9.6875 4.59082 9.6875 5.21777C9.6875 5.85645 9.54688 6.43359 9.26562 6.94922C8.98438 7.45898 8.60938 7.86621 8.14062 8.1709C7.67188 8.46973 7.15918 8.61914 6.60254 8.61914Z" fill="#EB8D00"/>
</svg>
